<svg width="24" height="28" viewBox="0 0 24 28" fill="none" xmlns="http://www.w3.org/2000/svg">
<path fill-rule="evenodd" clip-rule="evenodd" d="M9.02257 5.79988C9.2 4.1423 10.466 2.85712 12.0013 2.85712C13.5367 2.85712 14.8026 4.1423 14.98 5.79988C17.4827 7.06406 19.2235 9.87215 19.2235 13.1333V18.7244L20.894 22.4121C21.2297 23.1533 20.7463 24.0285 20.0013 24.0285H14.8306C14.4188 25.3269 13.3075 26.2571 12.0013 26.2571C10.6951 26.2571 9.58385 25.3269 9.17201 24.0285H4.0013C3.25626 24.0285 2.77286 23.1533 3.10858 22.4121L4.77908 18.7244V13.1333C4.77908 9.87215 6.5199 7.06406 9.02257 5.79988ZM17.3308 19.4918L18.3764 21.8H5.62623L6.6718 19.4918C6.74234 19.3361 6.77908 19.1641 6.77908 18.9897V13.1333C6.77908 9.91954 9.11715 7.31426 12.0013 7.31426C14.8855 7.31426 17.2235 9.91954 17.2235 13.1333V18.9897C17.2235 19.1641 17.2603 19.3361 17.3308 19.4918Z" fill="#92929D"/>
</svg>
