<svg width="28" height="28" viewBox="0 0 28 28" fill="none" xmlns="http://www.w3.org/2000/svg">
<path fill-rule="evenodd" clip-rule="evenodd" d="M17.5 18.375V20.2417C17.5 21.286 16.4677 22.1667 15.1667 22.1667H8.75002C7.44899 22.1667 6.41669 21.286 6.41669 20.2417V7.175C6.41669 6.13067 7.44899 5.25 8.75002 5.25H15.1667C16.4677 5.25 17.5 6.13067 17.5 7.175V9.04167C17.5 9.52492 17.8918 9.91667 18.375 9.91667C18.8583 9.91667 19.25 9.52492 19.25 9.04167V7.175C19.25 5.12954 17.4113 3.5 15.1667 3.5H8.75002C6.50546 3.5 4.66669 5.12954 4.66669 7.175V20.2417C4.66669 22.2871 6.50546 23.9167 8.75002 23.9167H15.1667C17.4113 23.9167 19.25 22.2871 19.25 20.2417V18.375C19.25 17.2083 17.5 17.2083 17.5 18.375ZM11.375 14.5833H19.7939L19.1563 15.2209C18.8146 15.5627 18.8146 16.1167 19.1563 16.4584C19.498 16.8001 20.052 16.8001 20.3937 16.4584L22.7271 14.125C23.0672 13.785 23.069 13.2341 22.7312 12.8918L20.3979 10.5271C20.0584 10.1831 19.5044 10.1794 19.1604 10.5188C18.8165 10.8583 18.8128 11.4123 19.1522 11.7562L20.215 12.8333H11.375C10.8918 12.8333 10.5 13.2251 10.5 13.7083C10.5 14.1916 10.8918 14.5833 11.375 14.5833Z" fill="#FC5A5A"/>
</svg>
