<svg width="38" height="39" viewBox="0 0 38 39" fill="none" xmlns="http://www.w3.org/2000/svg">
<rect x="1.5" y="1.67145" width="35" height="35" rx="11.5" fill="#82C43C" stroke="#F1F1F5" stroke-width="3"/>
<path d="M17.5786 24.1714L15.3386 20.2794H14.1206V24.1714H12.5246V14.4414H15.8846C16.6313 14.4414 17.2613 14.5721 17.7746 14.8334C18.2973 15.0948 18.6846 15.4448 18.9366 15.8834C19.1979 16.3221 19.3286 16.8121 19.3286 17.3534C19.3286 17.9881 19.1419 18.5668 18.7686 19.0894C18.4046 19.6028 17.8399 19.9528 17.0746 20.1394L19.4826 24.1714H17.5786ZM14.1206 19.0054H15.8846C16.4819 19.0054 16.9299 18.8561 17.2286 18.5574C17.5366 18.2588 17.6906 17.8574 17.6906 17.3534C17.6906 16.8494 17.5413 16.4574 17.2426 16.1774C16.9439 15.8881 16.4913 15.7434 15.8846 15.7434H14.1206V19.0054ZM27.0963 14.4414V15.7434H22.9663V18.6134H26.1863V19.9154H22.9663V24.1714H21.3703V14.4414H27.0963Z" fill="white"/>
</svg>
